<?xml version="1.0" encoding="UTF-8"?>
<svg version="1.1" id="Logo" xmlns="http://www.w3.org/2000/svg" xmlns:xlink="http://www.w3.org/1999/xlink" x="0px" y="0px" viewBox="0 0 337.32 56.69" style="enable-background:new 0 0 337.32 56.69;" xml:space="preserve">
<style type="text/css">
  .st0{fill:#00AFC3;}
  .st1{fill:#0069B4;}
  .st2{fill:none;stroke:#0069B4;stroke-width:1.8118;stroke-linejoin:round;}
  .st3{fill:none;stroke:#64B4E6;stroke-width:1.8118;}
  .st4{fill:none;stroke:#0069B4;stroke-width:1.8118;}
  .st5{fill:#E62D4B;}
  .st6{fill:#FFCD00;}
  .st7{fill:#002D50;}
  .wordmark-blue{fill:#0069B4;font-family:Arial, Helvetica, sans-serif;font-size:30px;font-weight:700;letter-spacing:-0.4px;}
  .wordmark-teal{fill:#00AFC3;font-family:Arial, Helvetica, sans-serif;font-size:30px;font-weight:700;letter-spacing:-0.4px;}
</style>
<g>
  <g>
    <line class="st2" x1="20.59" y1="51.83" x2="33.18" y2="5.49"/>
    <line class="st3" x1="46.56" y1="40.1" x2="33.18" y2="6.33"/>
    <line class="st4" x1="19.52" y1="50.63" x2="50.52" y2="38.6"/>
    <line class="st2" x1="60.75" y1="13.08" x2="6.76" y2="25.98"/>
    <line class="st3" x1="46.85" y1="40.51" x2="5.22" y2="25.49"/>
    <line class="st4" x1="60.75" y1="13.08" x2="44.01" y2="43.65"/>
    <g>
      <path class="st5" d="M39.31,6.74c0.26-3.36-2.21-6.29-5.52-6.55c-3.31-0.26-6.21,2.25-6.47,5.61c-0.26,3.36,2.21,6.29,5.52,6.55C36.15,12.61,39.05,10.1,39.31,6.74"/>
      <path class="st0" d="M45.27,45.71c-2.91-0.89-4.56-3.95-3.68-6.84c0.88-2.89,3.96-4.51,6.88-3.61c2.91,0.89,4.56,3.95,3.68,6.84C51.26,44.98,48.18,46.6,45.27,45.71"/>
      <path class="st1" d="M58.55,18.29c-3-0.92-4.71-4.01-3.82-6.91c0.89-2.9,4.04-4.51,7.03-3.59c3,0.92,4.71,4.01,3.82,6.91C64.69,17.6,61.54,19.21,58.55,18.29"/>
      <path class="st6" d="M4.88,31.32c-3.22-0.98-5.04-4.36-4.07-7.53c0.97-3.18,4.37-4.95,7.59-3.97c3.22,0.98,5.04,4.36,4.07,7.53C11.5,30.53,8.1,32.31,4.88,31.32"/>
      <path class="st1" d="M27.91,50.9c0.26-3.36-2.21-6.29-5.52-6.55c-3.31-0.26-6.21,2.25-6.47,5.61c-0.26,3.36,2.21,6.29,5.52,6.55C24.74,56.77,27.64,54.25,27.91,50.9"/>
    </g>
    <path class="st7" d="M31.81,32.92c0.26-3.36-2.21-6.29-5.52-6.55c-3.31-0.26-6.21,2.25-6.47,5.61c-0.26,3.36,2.21,6.29,5.52,6.55C28.65,38.79,31.55,36.28,31.81,32.92"/>
  </g>

  <text x="82" y="39.5"><tspan class="wordmark-blue">Ident</tspan><tspan class="wordmark-teal">.services</tspan></text>
</g>
</svg>
