<?xml version="1.0" encoding="UTF-8"?>
<!-- Generator: Adobe Illustrator 23.1.1, SVG Export Plug-In . SVG Version: 6.00 Build 0)  -->
<svg version="1.1" id="Logo" xmlns="http://www.w3.org/2000/svg" xmlns:xlink="http://www.w3.org/1999/xlink" x="0px" y="0px" viewBox="0 0 337.32 56.69" style="enable-background:new 0 0 337.32 56.69;" xml:space="preserve">
<style type="text/css">
	.st0{fill:#00AFC3;}
	.st1{fill:#0069B4;}
	.st2{fill:none;stroke:#0069B4;stroke-width:1.8118;stroke-linejoin:round;}
	.st3{fill:none;stroke:#64B4E6;stroke-width:1.8118;}
	.st4{fill:none;stroke:#0069B4;stroke-width:1.8118;}
	.st5{fill:#E62D4B;}
	.st6{fill:#FFCD00;}
	.st7{fill:#002D50;}
</style>
	<g>
	<path class="st0" d="M252.68,45.61h-6.28v-7.42h6.28V45.61L252.68,45.61z M269.64,27.39c-0.08-0.6-0.22-1.15-0.43-1.64   c-0.21-0.49-0.5-0.89-0.88-1.19c-0.38-0.3-0.89-0.45-1.52-0.45c-0.79,0-1.44,0.18-1.95,0.55c-0.51,0.37-0.89,0.9-1.14,1.62   c-0.26,0.71-0.43,1.62-0.52,2.71c-0.09,1.09-0.14,2.39-0.14,3.88c0,1.59,0.05,2.94,0.14,4.07c0.1,1.13,0.27,2.05,0.52,2.78   c0.25,0.73,0.61,1.26,1.07,1.59c0.46,0.33,1.05,0.5,1.78,0.5c1.11,0,1.92-0.48,2.43-1.43c0.51-0.95,0.76-2.47,0.76-4.57h6.28   c0,3.36-0.75,5.92-2.26,7.68c-1.51,1.76-4,2.64-7.49,2.64c-1.65,0-3.08-0.2-4.31-0.59c-1.22-0.4-2.23-1.11-3.04-2.14   c-0.81-1.03-1.42-2.41-1.83-4.14c-0.41-1.73-0.62-3.88-0.62-6.45c0-2.63,0.25-4.81,0.76-6.54c0.51-1.73,1.22-3.11,2.14-4.14   c0.92-1.03,2.01-1.75,3.28-2.16c1.27-0.41,2.66-0.62,4.19-0.62c3.04,0,5.33,0.89,6.87,2.66c1.54,1.78,2.31,4.19,2.31,7.23h-6.28   C269.76,28.61,269.72,28,269.64,27.39L269.64,27.39z M289.97,33.65c-0.51,0.21-0.97,0.36-1.38,0.45c-1.33,0.29-2.28,0.76-2.85,1.43   c-0.57,0.67-0.86,1.57-0.86,2.71c0,0.98,0.19,1.82,0.57,2.52c0.38,0.7,1.02,1.05,1.9,1.05c0.44,0,0.9-0.07,1.38-0.21   c0.48-0.14,0.91-0.37,1.31-0.69c0.4-0.32,0.72-0.73,0.98-1.24c0.25-0.51,0.38-1.11,0.38-1.81v-5.04   C290.96,33.17,290.48,33.44,289.97,33.65L289.97,33.65z M279.41,27.25c0-1.49,0.24-2.74,0.71-3.73c0.48-1,1.12-1.81,1.93-2.43   c0.81-0.62,1.76-1.06,2.85-1.33c1.09-0.27,2.26-0.4,3.5-0.4c1.97,0,3.55,0.19,4.76,0.57c1.21,0.38,2.14,0.92,2.81,1.62   c0.67,0.7,1.12,1.53,1.36,2.5c0.24,0.97,0.36,2.02,0.36,3.16v13.46c0,1.21,0.05,2.14,0.17,2.81c0.11,0.67,0.32,1.38,0.64,2.14   h-6.28c-0.22-0.41-0.39-0.85-0.5-1.31c-0.11-0.46-0.21-0.91-0.31-1.36h-0.1c-0.76,1.33-1.64,2.2-2.64,2.59   c-1,0.4-2.29,0.59-3.88,0.59c-1.14,0-2.11-0.2-2.9-0.59c-0.79-0.4-1.43-0.94-1.9-1.64c-0.48-0.7-0.82-1.48-1.05-2.35   c-0.22-0.87-0.33-1.74-0.33-2.59c0-1.2,0.13-2.24,0.38-3.12c0.25-0.87,0.64-1.62,1.17-2.24c0.52-0.62,1.19-1.13,2-1.55   c0.81-0.41,1.78-0.78,2.93-1.09l3.71-1c0.98-0.25,1.66-0.6,2.04-1.05c0.38-0.44,0.57-1.09,0.57-1.95c0-0.98-0.23-1.75-0.69-2.31   c-0.46-0.55-1.25-0.83-2.35-0.83c-1.02,0-1.78,0.3-2.28,0.9c-0.51,0.6-0.76,1.41-0.76,2.43v0.71h-5.9V27.25L279.41,27.25z    M308.62,20.02v3.42h0.1c0.67-1.24,1.47-2.23,2.43-2.97c0.95-0.74,2.11-1.12,3.47-1.12c0.19,0,0.39,0.01,0.6,0.02   c0.21,0.02,0.4,0.04,0.59,0.07v6.28c-0.35-0.03-0.69-0.06-1.02-0.07c-0.33-0.02-0.67-0.02-1.02-0.02c-0.57,0-1.14,0.08-1.71,0.24   c-0.57,0.16-1.09,0.42-1.57,0.78c-0.48,0.36-0.86,0.84-1.14,1.43c-0.29,0.59-0.43,1.31-0.43,2.16v15.36h-6.56V20.02H308.62   L308.62,20.02z M330.31,27.32c-0.1-0.74-0.26-1.38-0.5-1.9c-0.24-0.52-0.57-0.92-1-1.19c-0.43-0.27-0.98-0.4-1.64-0.4   c-0.67,0-1.21,0.15-1.64,0.45c-0.43,0.3-0.77,0.7-1.02,1.19c-0.25,0.49-0.44,1.04-0.55,1.64c-0.11,0.6-0.17,1.21-0.17,1.81v1h6.71   C330.47,28.93,330.41,28.07,330.31,27.32L330.31,27.32z M323.79,35.86c0,0.76,0.05,1.5,0.17,2.21c0.11,0.71,0.29,1.35,0.55,1.9   c0.25,0.56,0.59,1,1,1.33c0.41,0.33,0.92,0.5,1.52,0.5c1.11,0,1.92-0.4,2.43-1.19c0.51-0.79,0.86-2,1.05-3.62h5.9   c-0.13,2.98-0.92,5.25-2.38,6.8c-1.46,1.55-3.76,2.33-6.9,2.33c-2.38,0-4.23-0.4-5.57-1.19c-1.33-0.79-2.31-1.84-2.95-3.14   c-0.64-1.3-1.02-2.76-1.17-4.38c-0.14-1.62-0.21-3.23-0.21-4.85c0-1.71,0.12-3.36,0.36-4.95c0.24-1.59,0.71-3,1.43-4.23   c0.71-1.24,1.74-2.22,3.07-2.95c1.33-0.73,3.11-1.09,5.33-1.09c1.9,0,3.46,0.31,4.68,0.93c1.22,0.62,2.18,1.49,2.88,2.62   c0.7,1.13,1.17,2.49,1.43,4.09c0.25,1.6,0.38,3.39,0.38,5.35v1.47h-12.99V35.86L323.79,35.86z"/>
		<path class="st1" d="M88.81,36c0,0.79,0.06,1.51,0.19,2.16c0.13,0.65,0.36,1.2,0.71,1.64c0.35,0.44,0.82,0.79,1.4,1.05   c0.59,0.25,1.32,0.38,2.21,0.38c1.05,0,1.99-0.34,2.83-1.02c0.84-0.68,1.26-1.74,1.26-3.16c0-0.76-0.1-1.42-0.31-1.97   c-0.21-0.55-0.55-1.05-1.02-1.5c-0.48-0.44-1.1-0.85-1.88-1.21c-0.78-0.36-1.74-0.74-2.88-1.12c-1.52-0.51-2.84-1.06-3.95-1.66   c-1.11-0.6-2.04-1.31-2.78-2.12c-0.75-0.81-1.29-1.74-1.64-2.81c-0.35-1.06-0.52-2.29-0.52-3.69c0-3.36,0.93-5.87,2.81-7.52   c1.87-1.65,4.44-2.47,7.71-2.47c1.52,0,2.93,0.17,4.21,0.5c1.28,0.33,2.39,0.87,3.33,1.62c0.93,0.75,1.66,1.7,2.19,2.85   c0.52,1.16,0.79,2.54,0.79,4.16v0.95H96.9c0-1.62-0.28-2.86-0.86-3.73c-0.57-0.87-1.52-1.31-2.85-1.31c-0.76,0-1.4,0.11-1.9,0.33   c-0.51,0.22-0.91,0.52-1.21,0.88c-0.3,0.36-0.51,0.78-0.62,1.26c-0.11,0.48-0.17,0.97-0.17,1.47c0,1.05,0.22,1.93,0.67,2.64   c0.44,0.71,1.4,1.37,2.85,1.97l5.28,2.28c1.3,0.57,2.36,1.17,3.19,1.78c0.82,0.62,1.48,1.28,1.97,2c0.49,0.71,0.83,1.5,1.02,2.35   c0.19,0.86,0.29,1.81,0.29,2.85c0,3.58-1.04,6.19-3.12,7.83c-2.08,1.63-4.97,2.45-8.68,2.45c-3.87,0-6.64-0.84-8.3-2.52   c-1.66-1.68-2.5-4.09-2.5-7.23V35h6.85V36L88.81,36z M118.3,33.65c-0.51,0.21-0.97,0.36-1.38,0.45c-1.33,0.29-2.28,0.76-2.85,1.43   c-0.57,0.67-0.86,1.57-0.86,2.71c0,0.98,0.19,1.82,0.57,2.52c0.38,0.7,1.01,1.05,1.9,1.05c0.44,0,0.9-0.07,1.38-0.21   c0.48-0.14,0.91-0.37,1.31-0.69c0.4-0.32,0.72-0.73,0.98-1.24c0.25-0.51,0.38-1.11,0.38-1.81v-5.04   C119.28,33.17,118.81,33.44,118.3,33.65L118.3,33.65z M107.74,27.25c0-1.49,0.24-2.74,0.71-3.73c0.48-1,1.12-1.81,1.93-2.43   c0.81-0.62,1.76-1.06,2.85-1.33c1.09-0.27,2.26-0.4,3.5-0.4c1.97,0,3.55,0.19,4.76,0.57c1.21,0.38,2.14,0.92,2.81,1.62   c0.67,0.7,1.12,1.53,1.35,2.5c0.24,0.97,0.36,2.02,0.36,3.16v13.46c0,1.21,0.05,2.14,0.17,2.81c0.11,0.67,0.32,1.38,0.64,2.14   h-6.28c-0.22-0.41-0.39-0.85-0.5-1.31c-0.11-0.46-0.21-0.91-0.31-1.36h-0.09c-0.76,1.33-1.64,2.2-2.64,2.59   c-1,0.4-2.29,0.59-3.88,0.59c-1.14,0-2.11-0.2-2.9-0.59c-0.79-0.4-1.43-0.94-1.9-1.64c-0.48-0.7-0.83-1.48-1.05-2.35   c-0.22-0.87-0.33-1.74-0.33-2.59c0-1.2,0.13-2.24,0.38-3.12c0.25-0.87,0.64-1.62,1.16-2.24c0.52-0.62,1.19-1.13,2-1.55   c0.81-0.41,1.78-0.78,2.93-1.09l3.71-1c0.98-0.25,1.66-0.6,2.04-1.05c0.38-0.44,0.57-1.09,0.57-1.95c0-0.98-0.23-1.75-0.69-2.31   c-0.46-0.55-1.24-0.83-2.35-0.83c-1.02,0-1.78,0.3-2.28,0.9c-0.51,0.6-0.76,1.41-0.76,2.43v0.71h-5.9V27.25L107.74,27.25z    M136.95,20.02v2.62h0.1c0.82-1.17,1.75-2.01,2.78-2.52c1.03-0.51,2.26-0.76,3.69-0.76c1.52,0,2.8,0.35,3.83,1.05   c1.03,0.7,1.72,1.71,2.07,3.04h0.09c0.51-1.36,1.32-2.39,2.45-3.07c1.12-0.68,2.47-1.02,4.02-1.02c2.19,0,3.8,0.66,4.83,1.97   c1.03,1.32,1.55,3.21,1.55,5.68v18.6h-6.57V27.73c0-1.08-0.2-1.9-0.59-2.47c-0.4-0.57-1.06-0.86-1.97-0.86   c-1.05,0-1.88,0.35-2.5,1.05c-0.62,0.7-0.93,1.81-0.93,3.33v16.84h-6.57V27.73c0-1.08-0.2-1.9-0.59-2.47   c-0.4-0.57-1.06-0.86-1.97-0.86c-1.05,0-1.88,0.35-2.5,1.05c-0.62,0.7-0.93,1.81-0.93,3.33v16.84h-6.57V20.02H136.95L136.95,20.02z    M178.86,27.32c-0.1-0.74-0.26-1.38-0.5-1.9c-0.24-0.52-0.57-0.92-1-1.19c-0.43-0.27-0.98-0.4-1.64-0.4s-1.21,0.15-1.64,0.45   c-0.43,0.3-0.77,0.7-1.02,1.19c-0.26,0.49-0.44,1.04-0.55,1.64c-0.11,0.6-0.17,1.21-0.17,1.81v1h6.71   C179.01,28.93,178.95,28.07,178.86,27.32L178.86,27.32z M172.34,35.86c0,0.76,0.06,1.5,0.17,2.21c0.11,0.71,0.29,1.35,0.55,1.9   c0.25,0.56,0.59,1,1,1.33c0.41,0.33,0.92,0.5,1.52,0.5c1.11,0,1.92-0.4,2.43-1.19c0.51-0.79,0.86-2,1.05-3.62h5.9   c-0.13,2.98-0.92,5.25-2.38,6.8c-1.46,1.55-3.76,2.33-6.9,2.33c-2.38,0-4.23-0.4-5.57-1.19c-1.33-0.79-2.32-1.84-2.95-3.14   c-0.63-1.3-1.02-2.76-1.17-4.38c-0.14-1.62-0.21-3.23-0.21-4.85c0-1.71,0.12-3.36,0.36-4.95c0.24-1.59,0.71-3,1.43-4.23   c0.71-1.24,1.74-2.22,3.07-2.95c1.33-0.73,3.11-1.09,5.33-1.09c1.9,0,3.46,0.31,4.69,0.93c1.22,0.62,2.18,1.49,2.88,2.62   c0.7,1.13,1.17,2.49,1.43,4.09c0.25,1.6,0.38,3.39,0.38,5.35v1.47h-12.99V35.86L172.34,35.86z M201.78,42.9   c-0.73,1.21-1.55,2.05-2.45,2.52c-0.9,0.48-2.02,0.71-3.35,0.71c-2.7,0-4.68-1.03-5.95-3.09c-1.27-2.06-1.9-5.47-1.9-10.23   c0-4.76,0.63-8.19,1.9-10.3c1.27-2.11,3.25-3.16,5.95-3.16c1.24,0,2.29,0.25,3.16,0.76c0.87,0.51,1.66,1.27,2.35,2.28h0.1V11.65   h6.56v33.96h-6.28V42.9H201.78L201.78,42.9z M195.34,39.12c0.43,1.41,1.36,2.12,2.78,2.12c1.46,0,2.4-0.71,2.83-2.12   c0.43-1.41,0.64-3.51,0.64-6.3c0-2.79-0.21-4.89-0.64-6.3c-0.43-1.41-1.37-2.12-2.83-2.12c-1.43,0-2.35,0.71-2.78,2.12   c-0.43,1.41-0.64,3.51-0.64,6.3C194.7,35.61,194.91,37.71,195.34,39.12L195.34,39.12z M219.34,11.27v5.61h-6.57v-5.61H219.34   L219.34,11.27z M219.34,20.02v25.59h-6.57V20.02H219.34L219.34,20.02z M228.75,38.1c0,1.11,0.29,2.01,0.88,2.69   c0.59,0.68,1.43,1.02,2.55,1.02c1.01,0,1.82-0.25,2.43-0.76c0.6-0.51,0.9-1.27,0.9-2.28c0-0.82-0.24-1.45-0.71-1.88   c-0.48-0.43-1.03-0.77-1.66-1.02l-4.61-1.66c-1.81-0.63-3.17-1.53-4.09-2.69c-0.92-1.16-1.38-2.64-1.38-4.45   c0-1.05,0.17-2.04,0.52-2.97c0.35-0.94,0.9-1.75,1.66-2.45c0.76-0.7,1.74-1.25,2.93-1.66c1.19-0.41,2.62-0.62,4.31-0.62   c2.98,0,5.19,0.63,6.61,1.9c1.43,1.27,2.14,3.06,2.14,5.38v1.05h-5.9c0-1.33-0.21-2.31-0.64-2.93c-0.43-0.62-1.18-0.93-2.26-0.93   c-0.82,0-1.55,0.23-2.16,0.69c-0.62,0.46-0.93,1.15-0.93,2.07c0,0.63,0.2,1.21,0.59,1.71c0.4,0.51,1.15,0.94,2.26,1.28l3.95,1.33   c2.06,0.7,3.52,1.61,4.38,2.74c0.86,1.13,1.29,2.66,1.29,4.59c0,1.36-0.24,2.54-0.71,3.54c-0.48,1-1.13,1.83-1.97,2.5   c-0.84,0.67-1.84,1.14-3,1.43c-1.16,0.29-2.43,0.43-3.83,0.43c-1.84,0-3.37-0.17-4.59-0.52c-1.22-0.35-2.19-0.87-2.9-1.57   c-0.71-0.7-1.21-1.55-1.5-2.54c-0.29-1-0.43-2.12-0.43-3.35v-0.9h5.9V38.1L228.75,38.1z"/>
		<g>
		<line class="st2" x1="20.59" y1="51.83" x2="33.18" y2="5.49"/>
			<line class="st3" x1="46.56" y1="40.1" x2="33.18" y2="6.33"/>
			<line class="st4" x1="19.52" y1="50.63" x2="50.52" y2="38.6"/>
			<line class="st2" x1="60.75" y1="13.08" x2="6.76" y2="25.98"/>
			<line class="st3" x1="46.85" y1="40.51" x2="5.22" y2="25.49"/>
			<line class="st4" x1="60.75" y1="13.08" x2="44.01" y2="43.65"/>
			<g>
			<path class="st5" d="M39.31,6.74c0.26-3.36-2.21-6.29-5.52-6.55c-3.31-0.26-6.21,2.25-6.47,5.61c-0.26,3.36,2.21,6.29,5.52,6.55     C36.15,12.61,39.05,10.1,39.31,6.74"/>
				<path class="st0" d="M45.27,45.71c-2.91-0.89-4.56-3.95-3.68-6.84c0.88-2.89,3.96-4.51,6.88-3.61c2.91,0.89,4.56,3.95,3.68,6.84     C51.26,44.98,48.18,46.6,45.27,45.71"/>
				<path class="st1" d="M58.55,18.29c-3-0.92-4.71-4.01-3.82-6.91c0.89-2.9,4.04-4.51,7.03-3.59c3,0.92,4.71,4.01,3.82,6.91     C64.69,17.6,61.54,19.21,58.55,18.29"/>
				<path class="st6" d="M4.88,31.32c-3.22-0.98-5.04-4.36-4.07-7.53c0.97-3.18,4.37-4.95,7.59-3.97c3.22,0.98,5.04,4.36,4.07,7.53     C11.5,30.53,8.1,32.31,4.88,31.32"/>
				<path class="st1" d="M27.91,50.9c0.26-3.36-2.21-6.29-5.52-6.55c-3.31-0.26-6.21,2.25-6.47,5.61c-0.26,3.36,2.21,6.29,5.52,6.55     C24.74,56.77,27.64,54.25,27.91,50.9"/>
		</g>
			<path class="st7" d="M31.81,32.92c0.26-3.36-2.21-6.29-5.52-6.55c-3.31-0.26-6.21,2.25-6.47,5.61c-0.26,3.36,2.21,6.29,5.52,6.55    C28.65,38.79,31.55,36.28,31.81,32.92"/>
	</g>
</g>
<script xmlns=""/></svg>